Coordinates
version=1
nRows=14
nColumns=42
inDegrees=yes

Units are S.I. units (second, meters, Newtons, ...)
If the header above contains a line with 'inDegrees', this indicates whether rotational values are in degrees (yes) or radians (no).

endheader
time	pelvis_tilt	pelvis_list	pelvis_rotation	pelvis_tx	pelvis_ty	pelvis_tz	hip_flexion_r	hip_adduction_r	hip_rotation_r	knee_angle_r	knee_adduction_r	knee_angle_r_beta	ankle_angle_r	subtalar_angle_r	mtp_angle_r	hip_flexion_l	hip_adduction_l	hip_rotation_l	knee_angle_l	knee_adduction_l	knee_angle_l_beta	ankle_angle_l	subtalar_angle_l	mtp_angle_l	lumbar_extension	lumbar_bending	lumbar_rotation	arm_flex_r	arm_add_r	arm_rot_r	elbow_flex_r	pro_sup_r	wrist_flex_r	wrist_dev_r	arm_flex_l	arm_add_l	arm_rot_l	elbow_flex_l	pro_sup_l	wrist_flex_l	wrist_dev_l
      2.80000000	     24.17339430	      1.32745040	      7.69946010	      1.02647556	      0.91082087	      0.17094101	      0.86065311	     -0.49471067	    -39.66983566	     36.32072813	    -11.34561714	      0.63391629	     25.75804403	     31.74389114	     -7.50078479	    -29.20972014	     -3.06659529	    -10.73052785	     51.45375473	    -13.26943357	      0.89803743	     10.62881238	     28.24999021	     -7.50078479	    -47.26443895	      7.72741092	     -5.71549170	      2.47450277	    -13.44045254	     -0.77238927	     41.44643532	     90.00000001	      0.00000000	      0.00000000	     15.28940376	    -14.13619032	     -2.13729396	     53.81799331	     90.00000001	      0.00000000	      0.00000000
      2.81000000	     24.79606453	      1.19529047	      8.00551433	      1.03846962	      0.91376177	      0.17153955	     -1.34344913	      0.22836377	    -39.68427172	     35.14227787	    -10.96359168	      0.61334846	     26.73638350	     32.04310550	     -7.50076923	    -28.09298153	     -3.59362820	    -10.91876988	     53.26970297	    -13.76564247	      0.92973171	     11.96259709	     26.88409754	     -7.50076923	    -47.94551109	      8.03765682	     -5.55965694	      2.78235905	    -13.68681503	     -0.54144489	     42.21773428	     90.00000001	      0.00000000	      0.00000000	     14.80765196	    -14.02150392	     -1.97284238	     53.54050013	     90.00000001	      0.00000000	      0.00000000
      2.82000000	     24.99718845	      1.26451366	      8.34636057	      1.05003635	      0.91631090	      0.17199495	     -3.01318967	      0.57423166	    -39.69858849	     34.17154881	    -10.47490163	      0.59640604	     27.48414760	     32.29058802	     -7.50075504	    -26.28387680	     -3.81461878	    -11.18475969	     55.03849451	    -14.41875990	      0.96060294	     13.31890753	     25.49244832	     -7.50075504	    -48.26995840	      8.16578474	     -5.60799583	      3.14182014	    -13.80887380	     -0.32590610	     42.90738847	     90.00000001	      0.00000000	      0.00000000	     14.34853852	    -13.95763722	     -1.81475264	     53.14578983	     90.00000001	      0.00000000	      0.00000000
      2.83000000	     25.07280310	      1.46713716	      8.61443757	      1.06143847	      0.91875351	      0.17248323	     -4.51056220	      0.79044035	    -39.71007892	     33.18868968	    -10.13907703	      0.57925191	     28.29775694	     32.65032279	     -7.50073693	    -24.30727172	     -3.71032595	    -11.24979652	     56.56123551	    -14.96849039	      0.98717979	     14.92509033	     23.68356134	     -7.50073693	    -48.46840484	      8.11015862	     -5.62103861	      3.45657788	    -13.98212969	     -0.04955986	     43.61543471	     90.00000001	      0.00000000	      0.00000000	     14.02335116	    -13.84572088	     -1.59335431	     52.61811009	     90.00000001	      0.00000000	      0.00000000
      2.84000000	     25.07215933	      1.85875265	      8.86966361	      1.07269369	      0.92123151	      0.17283869	     -5.93489972	      0.67921951	    -39.72184074	     32.35258168	     -9.65951793	      0.56465907	     29.02755711	     33.22969073	     -7.50070032	    -22.30222141	     -3.23466711	    -10.61500526	     57.75944855	    -14.99052739	      1.00809255	     16.20133221	     21.08479491	     -7.50070032	    -48.61193533	      7.89093331	     -5.78139613	      3.70672388	    -14.20520027	      0.47764794	     44.46471499	     90.00000001	      0.00000000	      0.00000000	     13.72968937	    -13.76517902	     -1.20601022	     51.78051778	     90.00000001	      0.00000000	      0.00000000
      2.85000000	     25.08004806	      2.22362291	      9.10614610	      1.08400212	      0.92363461	      0.17323775	     -7.37772517	      0.64792046	    -39.72470209	     31.42802427	     -9.18469934	      0.54852250	     29.43035498	     33.09496151	     -7.50068873	    -20.30672116	     -2.77123391	    -10.79672634	     58.45594102	    -15.53825202	      1.02024864	     17.36190449	     19.96940025	     -7.50068873	    -48.73462509	      7.67457893	     -6.04236004	      4.20552342	    -14.19295723	      0.55048664	     44.86288679	     90.00000001	      0.00000000	      0.00000000	     13.14796106	    -13.75607439	     -1.10512512	     51.37558580	     90.00000001	      0.00000000	      0.00000000
      2.86000000	     25.10014939	      2.62726803	      9.22986109	      1.09533624	      0.92600354	      0.17373051	     -8.83520518	      0.54391141	    -39.72599972	     30.49519519	     -8.75231255	      0.53224156	     30.19149626	     33.75568799	     -7.50066149	    -18.47134341	     -2.05612346	    -10.21356219	     58.86928355	    -15.44904272	      1.02746283	     18.83112052	     17.63167168	     -7.50066149	    -48.87984692	      7.33958198	     -6.08071340	      4.47941113	    -14.34684387	      0.80683211	     45.47199186	     90.00000001	      0.00000000	      0.00000000	     12.71833302	    -13.61481125	     -0.76077651	     50.62403185	     90.00000001	      0.00000000	      0.00000000
      2.87000000	     25.13918628	      3.06352786	      9.33482411	      1.10663932	      0.92827605	      0.17419110	    -10.28647991	      0.39196406	    -39.72622531	     29.62810882	     -8.31032165	      0.51710805	     30.47713003	     33.68575675	     -7.50065007	    -16.68200084	     -1.34375953	    -10.21576762	     58.81449138	    -15.62585163	      1.02650652	     19.70900477	     16.66416507	     -7.50065007	    -49.04484646	      6.99739690	     -6.30267711	      5.00111709	    -14.41193962	      0.85792827	     45.91768917	     90.00000001	      0.00000000	      0.00000000	     12.14678229	    -13.61965345	     -0.64301083	     50.21688368	     90.00000001	      0.00000000	      0.00000000
      2.88000000	     25.23376306	      3.43522827	      9.34720509	      1.11810933	      0.93043748	      0.17477192	    -11.83718617	      0.29744771	    -39.72067309	     28.67159346	     -7.81956679	      0.50041371	     30.88304220	     33.90932020	     -7.50063899	    -15.07657222	     -0.61907315	    -10.13946838	     58.39624891	    -15.64299603	      1.01920681	     20.71406874	     15.60649724	     -7.50063899	    -49.23129022	      6.64322218	     -6.36274996	      5.42632604	    -14.52334000	      0.93359632	     46.41563021	     90.00000001	      0.00000000	      0.00000000	     11.53220570	    -13.54892347	     -0.47853682	     49.75367330	     90.00000001	      0.00000000	      0.00000000
      2.89000000	     25.39270410	      3.73304652	      9.29151927	      1.12963907	      0.93246921	      0.17541314	    -13.46156823	      0.27420738	    -39.71565076	     27.65735737	     -7.33075251	      0.48271195	     31.30098319	     34.53944818	     -7.50062426	    -13.64760779	      0.04617388	     -9.94656666	     57.64193683	    -15.42431445	      1.00604158	     21.57246868	     14.49920189	     -7.50062426	    -49.48568800	      6.33479278	     -6.27455801	      5.71165754	    -14.77580997	      1.08983327	     47.08133493	     90.00000001	      0.00000000	      0.00000000	     10.95455251	    -13.41831816	     -0.21492900	     49.26179499	     90.00000001	      0.00000000	      0.00000000
      2.90000000	     25.56539443	      3.93297623	      9.15028681	      1.14126965	      0.93421370	      0.17614924	    -15.08431273	      0.33315236	    -39.70506692	     26.61512931	     -6.83826608	      0.46452164	     31.60118022	     35.04507754	     -7.50060980	    -12.31289812	      0.65386672	     -9.87677979	     56.59939082	    -15.22095341	      0.98784572	     22.24460987	     13.73669390	     -7.50060980	    -49.70755987	      6.04864320	     -6.09061678	      6.04232201	    -15.03249227	      1.27135272	     47.80653164	     90.00000001	      0.00000000	      0.00000000	     10.24162437	    -13.31662572	      0.02765274	     48.82015287	     90.00000001	      0.00000000	      0.00000000
      2.91000000	     25.57537670	      4.05647925	      8.96654716	      1.15291822	      0.93548228	      0.17695078	    -16.45926142	      0.43597895	    -39.69121777	     25.61932906	     -6.41630625	      0.44714164	     31.81121890	     35.13353297	     -7.50060117	    -10.83935291	      1.23533593	     -9.89233857	     55.31558194	    -15.04977648	      0.96543903	     22.71769477	     13.32863561	     -7.50060117	    -49.76809579	      5.77887251	     -5.87907271	      6.43793395	    -15.21662175	      1.34990445	     48.33584068	     90.00000001	      0.00000000	      0.00000000	      9.43499168	    -13.20686518	      0.15641302	     48.48140954	     90.00000001	      0.00000000	      0.00000000
      2.92000000	     25.93635199	      4.04656115	      8.70485885	      1.16478268	      0.93677168	      0.17790626	    -18.33627026	      0.74602434	    -39.67978228	     24.33216006	     -5.93419932	      0.42467631	     31.95499207	     36.28646468	     -7.50057923	     -9.89172884	      1.50531126	    -10.15489864	     53.65095178	    -14.75037118	      0.93638576	     23.31850914	     13.26520213	     -7.50057923	    -50.14913664	      5.60763439	     -5.41925322	      6.57564703	    -15.74101984	      1.80803879	     49.60188609	     90.00000001	      0.00000000	      0.00000000	      8.70161477	    -13.09504430	      0.47818143	     48.16106034	     90.00000001	      0.00000000	      0.00000000
      2.93000000	     26.10389296	      3.99142641	      8.42347025	      1.17660989	      0.93750247	      0.17887114	    -19.89907345	      1.05003107	    -39.65764028	     23.21927080	     -5.51601761	      0.40525273	     32.25460234	     36.47225911	     -7.50056839	     -8.76864916	      1.80509021	    -10.40767604	     51.82452131	    -14.47006546	      0.90450853	     23.74179010	     13.12279895	     -7.50056839	    -50.32398263	      5.43638591	     -5.04771537	      6.99907701	    -16.02824834	      1.94936262	     50.18050781	     90.00000001	      0.00000000	      0.00000000	      7.84675044	    -12.98282210	      0.57895035	     47.86214847	     90.00000001	      0.00000000	      0.00000000
